<svg width="25" height="25" viewBox="0 0 25 25" fill="none" xmlns="http://www.w3.org/2000/svg">
<path d="M12.635 13.3775C12.5453 13.3663 12.4546 13.3663 12.365 13.3775C11.4109 13.3454 10.5067 12.9437 9.84335 12.2573C9.17999 11.5708 8.80944 10.6534 8.80998 9.69879C8.80998 7.66254 10.4525 6.00879 12.5 6.00879C13.4668 6.00712 14.3957 6.38546 15.0862 7.06225C15.7767 7.73904 16.1735 8.66007 16.1913 9.62678C16.209 10.5935 15.8461 11.5284 15.1808 12.2301C14.5156 12.9317 13.6013 13.3438 12.635 13.3775ZM20.0825 20.8025C18.015 22.7028 15.308 23.755 12.5 23.75C9.57498 23.75 6.91998 22.6363 4.91748 20.8025C5.02998 19.745 5.70498 18.71 6.90873 17.9C9.99123 15.8525 15.0312 15.8525 18.0912 17.9C19.295 18.71 19.97 19.745 20.0825 20.8025Z" stroke="#FD9F16" stroke-width="1.5" stroke-linecap="round" stroke-linejoin="round"/>
<path d="M12.5 23.75C18.7134 23.75 23.75 18.7134 23.75 12.5C23.75 6.28663 18.7134 1.25 12.5 1.25C6.28663 1.25 1.25 6.28663 1.25 12.5C1.25 18.7134 6.28663 23.75 12.5 23.75Z" stroke="#FD9F16" stroke-width="1.5" stroke-linecap="round" stroke-linejoin="round"/>
</svg>
