<svg width="45" height="45" viewBox="0 0 45 45" fill="none" xmlns="http://www.w3.org/2000/svg">
<circle cx="22.2857" cy="22.7144" r="22.2857" fill="#36998D"/>
<path d="M21.7699 24.0535C22.1377 24.0535 22.5018 23.9811 22.8415 23.8404C23.1813 23.6996 23.4899 23.4934 23.75 23.2334C24.01 22.9733 24.2163 22.6647 24.357 22.3249C24.4977 21.9852 24.5701 21.6211 24.5701 21.2533C24.5701 20.8856 24.4977 20.5215 24.357 20.1817C24.2163 19.842 24.01 19.5333 23.75 19.2733C23.4899 19.0133 23.1813 18.807 22.8415 18.6663C22.5018 18.5256 22.1377 18.4531 21.7699 18.4531C21.0273 18.4531 20.315 18.7481 19.7899 19.2733C19.2647 19.7984 18.9697 20.5107 18.9697 21.2533C18.9697 21.996 19.2647 22.7082 19.7899 23.2334C20.315 23.7585 21.0273 24.0535 21.7699 24.0535Z" stroke="white" stroke-width="1.71"/>
<path d="M14.2491 19.6197C16.0172 11.8473 27.5321 11.8563 29.2912 19.6287C30.3233 24.188 27.4872 28.0472 25.0012 30.4346C24.1325 31.2724 22.9726 31.7406 21.7657 31.7406C20.5588 31.7406 19.3989 31.2724 18.5302 30.4346C16.0531 28.0472 13.217 24.179 14.2491 19.6197Z" stroke="white" stroke-width="1.71"/>
</svg>
