<svg width="18" height="22" viewBox="0 0 18 22" fill="none" xmlns="http://www.w3.org/2000/svg">
<path d="M9.00039 12.3108C9.34183 12.3108 9.67992 12.2368 9.99537 12.0931C10.3108 11.9494 10.5974 11.7387 10.8389 11.4731C11.0803 11.2076 11.2718 10.8923 11.4025 10.5453C11.5331 10.1983 11.6004 9.8264 11.6004 9.45082C11.6004 9.07524 11.5331 8.70334 11.4025 8.35635C11.2718 8.00935 11.0803 7.69407 10.8389 7.42849C10.5974 7.16292 10.3108 6.95225 9.99537 6.80852C9.67992 6.6648 9.34183 6.59082 9.00039 6.59082C8.31083 6.59082 7.64951 6.89214 7.16191 7.42849C6.67432 7.96485 6.40039 8.6923 6.40039 9.45082C6.40039 10.2093 6.67432 10.9368 7.16191 11.4731C7.64951 12.0095 8.31083 12.3108 9.00039 12.3108Z" stroke="#1D1D1D" stroke-opacity="0.3" stroke-width="1.71"/>
<path d="M2.01675 7.78242C3.65842 -0.155912 14.3501 -0.146746 15.9834 7.79159C16.9418 12.4483 14.3084 16.3899 12.0001 18.8283C11.1935 19.684 10.1165 20.1622 8.99592 20.1622C7.87529 20.1622 6.79836 19.684 5.99175 18.8283C3.69175 16.3899 1.05842 12.4391 2.01675 7.78242Z" stroke="#1D1D1D" stroke-opacity="0.3" stroke-width="1.71"/>
</svg>
