<svg width="22" height="22" viewBox="0 0 22 22" fill="none" xmlns="http://www.w3.org/2000/svg">
<path d="M20.9098 21L17.8798 17.97M16.2898 3.13998L16.2198 6.92998C16.2098 7.44998 16.5398 8.13998 16.9598 8.44998L19.4398 10.33C21.0298 11.53 20.7698 13 18.8698 13.6L15.6398 14.61C15.0998 14.78 14.5298 15.37 14.3898 15.92L13.6198 18.86C13.0098 21.18 11.4898 21.41 10.2298 19.37L8.46978 16.52C8.14978 16 7.38978 15.61 6.78978 15.64L3.44978 15.81C1.05978 15.93 0.379782 14.55 1.93978 12.73L3.91978 10.43C4.28978 9.99998 4.45978 9.19998 4.28978 8.65998L3.27978 5.42998C2.68978 3.52998 3.74978 2.47998 5.63978 3.09998L8.58978 4.06998C9.08978 4.22998 9.83978 4.11998 10.2598 3.80998L13.3398 1.58998C14.9998 0.38998 16.3298 1.08998 16.2898 3.13998Z" stroke="#1D1D1D" stroke-width="1.5" stroke-linecap="round" stroke-linejoin="round"/>
</svg>
