<svg width="14" height="12" viewBox="0 0 14 12" fill="none" xmlns="http://www.w3.org/2000/svg">
<path d="M7.00016 9.3481C6.34136 9.04747 5.37127 8.45772 4.52427 7.58989C3.51576 6.55659 2.8335 5.29528 2.8335 3.79356C2.8335 3.10258 3.38588 2.56689 4.04016 2.56689C4.42506 2.56689 4.76866 2.74855 4.9931 3.05077C5.46515 3.6864 6.2104 4.06086 7.00215 4.06023C7.7939 4.0596 8.53855 3.68396 9.00959 3.04757C9.11984 2.89862 9.26345 2.77756 9.4289 2.69409L8.35081 0.557172L9.4289 2.69409C9.59402 2.61078 9.77633 2.56723 9.96127 2.5669C10.6151 2.5675 11.1668 3.10296 11.1668 3.79356C11.1668 5.29528 10.4846 6.55659 9.47606 7.58989C8.62905 8.45772 7.65896 9.04747 7.00016 9.3481ZM6.58145 9.51608C6.58735 9.514 6.59319 9.51197 6.59897 9.51L6.58145 9.51608ZM7.40133 9.50999C7.40712 9.51197 7.41297 9.514 7.41888 9.51608L7.40133 9.50999Z" stroke="#64CDCE" stroke-width="5" stroke-linecap="round" stroke-linejoin="round"/>
</svg>
