<svg width="24" height="24" viewBox="0 0 24 24" fill="none" xmlns="http://www.w3.org/2000/svg">
<path d="M12 18.2002C13.0609 18.2002 14.0783 17.7788 14.8284 17.0286C15.5786 16.2785 16 15.2611 16 14.2002C16 13.1393 15.5786 12.1219 14.8284 11.3718C14.0783 10.6216 13.0609 10.2002 12 10.2002C10.9391 10.2002 9.92172 10.6216 9.17157 11.3718C8.42143 12.1219 8 13.1393 8 14.2002C8 15.2611 8.42143 16.2785 9.17157 17.0286C9.92172 17.7788 10.9391 18.2002 12 18.2002Z" stroke="#1D1D1D" stroke-width="1.5" stroke-miterlimit="10" stroke-linecap="round" stroke-linejoin="round"/>
<path d="M10.4395 14.3003L11.0895 14.9503C11.2795 15.1403 11.5895 15.1403 11.7795 14.9603L13.5595 13.3203" stroke="#1D1D1D" stroke-width="1.5" stroke-linecap="round" stroke-linejoin="round"/>
<path d="M7.99983 6V5.2C7.99983 3.43 7.99983 2 11.1998 2H12.7998C15.9998 2 15.9998 3.43 15.9998 5.2V6M7.99983 22H15.9998C20.0198 22 20.7398 20.39 20.9498 18.43L21.6998 10.43C21.9698 7.99 21.2698 6 16.9998 6H6.99983C2.72983 6 2.02983 7.99 2.29983 10.43L3.04983 18.43C3.25983 20.39 3.97983 22 7.99983 22Z" stroke="#1D1D1D" stroke-width="1.5" stroke-miterlimit="10" stroke-linecap="round" stroke-linejoin="round"/>
<path d="M21.6501 11C19.9568 12.2335 18.042 13.1298 16.0101 13.64M2.62012 11.27C4.29012 12.41 6.11012 13.22 8.00012 13.68" stroke="#1D1D1D" stroke-width="1.5" stroke-miterlimit="10" stroke-linecap="round" stroke-linejoin="round"/>
</svg>
