<svg width="16" height="16" viewBox="0 0 16 16" fill="none" xmlns="http://www.w3.org/2000/svg">
<path d="M6.99995 5.3335H8.99995M4.50662 14.6668H11.4933C13.3333 14.6668 14.0666 13.5402 14.1533 12.1668L14.4999 6.66016C14.5216 6.31872 14.4729 5.97647 14.357 5.65457C14.2411 5.33267 14.0604 5.03796 13.8261 4.78866C13.5918 4.53936 13.3089 4.34076 12.9948 4.20514C12.6807 4.06952 12.3421 3.99975 11.9999 4.00016C11.5933 4.00016 11.2199 3.76683 11.0333 3.40683L10.5533 2.44016C10.2466 1.8335 9.44662 1.3335 8.76662 1.3335H7.23995C6.55328 1.3335 5.75328 1.8335 5.44662 2.44016L4.96662 3.40683C4.77995 3.76683 4.40662 4.00016 3.99995 4.00016C2.55328 4.00016 1.40662 5.22016 1.49995 6.66016L1.84662 12.1668C1.92662 13.5402 2.66662 14.6668 4.50662 14.6668Z" stroke="#F2FAFA" stroke-width="1.5" stroke-linecap="round" stroke-linejoin="round"/>
<path d="M8.00016 11.9998C9.1935 11.9998 10.1668 11.0265 10.1668 9.83317C10.1668 8.63984 9.1935 7.6665 8.00016 7.6665C6.80683 7.6665 5.8335 8.63984 5.8335 9.83317C5.8335 11.0265 6.80683 11.9998 8.00016 11.9998Z" stroke="#F2FAFA" stroke-width="1.5" stroke-linecap="round" stroke-linejoin="round"/>
</svg>
