<svg width="25" height="25" viewBox="0 0 25 25" fill="none" xmlns="http://www.w3.org/2000/svg">
<path d="M1.25 1.25H3.2075C4.4225 1.25 5.37875 2.29625 5.2775 3.5L4.34375 14.705C4.30729 15.1391 4.3614 15.576 4.50264 15.9881C4.64388 16.4002 4.86918 16.7785 5.16426 17.0989C5.45934 17.4194 5.81776 17.6751 6.21682 17.8498C6.61588 18.0244 7.04688 18.1143 7.4825 18.1137H19.4638C21.0838 18.1137 22.5013 16.7863 22.625 15.1775L23.2325 6.74C23.3675 4.8725 21.95 3.35375 20.0712 3.35375H5.5475M9.125 8H22.625M17.2812 23.75C17.6542 23.75 18.0119 23.6018 18.2756 23.3381C18.5393 23.0744 18.6875 22.7167 18.6875 22.3438C18.6875 21.9708 18.5393 21.6131 18.2756 21.3494C18.0119 21.0857 17.6542 20.9375 17.2812 20.9375C16.9083 20.9375 16.5506 21.0857 16.2869 21.3494C16.0232 21.6131 15.875 21.9708 15.875 22.3438C15.875 22.7167 16.0232 23.0744 16.2869 23.3381C16.5506 23.6018 16.9083 23.75 17.2812 23.75ZM8.28125 23.75C8.65421 23.75 9.0119 23.6018 9.27562 23.3381C9.53934 23.0744 9.6875 22.7167 9.6875 22.3438C9.6875 21.9708 9.53934 21.6131 9.27562 21.3494C9.0119 21.0857 8.65421 20.9375 8.28125 20.9375C7.90829 20.9375 7.5506 21.0857 7.28688 21.3494C7.02316 21.6131 6.875 21.9708 6.875 22.3438C6.875 22.7167 7.02316 23.0744 7.28688 23.3381C7.5506 23.6018 7.90829 23.75 8.28125 23.75Z" stroke="white" stroke-width="2.5" stroke-miterlimit="10" stroke-linecap="round" stroke-linejoin="round"/>
</svg>
