<svg width="25" height="21" viewBox="0 0 25 21" fill="none" xmlns="http://www.w3.org/2000/svg">
<path d="M23.75 16.6875H15.875M4.625 16.6875H1.25M23.75 4.3125H20.375M9.125 4.3125H1.25M6.875 13.3125H13.625C14.8625 13.3125 15.875 13.875 15.875 15.5625V17.8125C15.875 19.5 14.8625 20.0625 13.625 20.0625H6.875C5.6375 20.0625 4.625 19.5 4.625 17.8125V15.5625C4.625 13.875 5.6375 13.3125 6.875 13.3125ZM11.375 0.9375H18.125C19.3625 0.9375 20.375 1.5 20.375 3.1875V5.4375C20.375 7.125 19.3625 7.6875 18.125 7.6875H11.375C10.1375 7.6875 9.125 7.125 9.125 5.4375V3.1875C9.125 1.5 10.1375 0.9375 11.375 0.9375Z" stroke="#FD9F16" stroke-width="1.5" stroke-miterlimit="10" stroke-linecap="round" stroke-linejoin="round"/>
</svg>
