<svg width="31" height="31" viewBox="0 0 31 31" fill="none" xmlns="http://www.w3.org/2000/svg">
<rect opacity="0.05" width="31" height="31" rx="7" fill="#1D1D1D"/>
<path d="M11.3159 21.0326L13.4243 23.141M23.1409 18.686C22.2458 19.5789 21.1238 20.2104 19.8961 20.5125C18.6684 20.8146 17.3815 20.7757 16.1743 20.4001L11.8568 24.7085C11.5451 25.0293 10.9309 25.2218 10.4909 25.1576L8.49259 24.8826C7.83259 24.791 7.21843 24.1676 7.11759 23.5076L6.84259 21.5093C6.77843 21.0693 6.98926 20.4551 7.29176 20.1435L11.6001 15.8351C10.8668 13.4518 11.4351 10.7476 13.3234 8.86846C16.0276 6.16429 20.4184 6.16429 23.1318 8.86846C25.8451 11.5726 25.8451 15.9818 23.1409 18.686Z" stroke="#1D1D1D" stroke-width="1.5" stroke-miterlimit="10" stroke-linecap="round" stroke-linejoin="round"/>
<path d="M18.2915 15.0835C18.6562 15.0835 19.0059 14.9386 19.2638 14.6808C19.5216 14.4229 19.6665 14.0732 19.6665 13.7085C19.6665 13.3438 19.5216 12.9941 19.2638 12.7362C19.0059 12.4784 18.6562 12.3335 18.2915 12.3335C17.9268 12.3335 17.5771 12.4784 17.3192 12.7362C17.0614 12.9941 16.9165 13.3438 16.9165 13.7085C16.9165 14.0732 17.0614 14.4229 17.3192 14.6808C17.5771 14.9386 17.9268 15.0835 18.2915 15.0835Z" stroke="#1D1D1D" stroke-width="1.5" stroke-linecap="round" stroke-linejoin="round"/>
</svg>
