<svg width="46" height="45" viewBox="0 0 46 45" fill="none" xmlns="http://www.w3.org/2000/svg">
<circle cx="22.857" cy="22.2857" r="22.2857" fill="#36998D"/>
<path d="M29.036 18.251V22.8731C29.036 25.6374 27.4564 26.8221 25.087 26.8221H17.198C16.7941 26.8221 16.4082 26.7862 16.0492 26.7055C15.8248 26.6696 15.6094 26.6067 15.412 26.5349C14.0657 26.0323 13.249 24.8656 13.249 22.8731V18.251C13.249 15.4867 14.8286 14.302 17.198 14.302H25.087C27.0974 14.302 28.5424 15.1546 28.9283 17.1022C28.9912 17.4612 29.036 17.8292 29.036 18.251Z" stroke="white" stroke-width="1.71429" stroke-miterlimit="10" stroke-linecap="round" stroke-linejoin="round"/>
<path d="M31.7291 20.9434V25.5655C31.7291 28.3298 30.1495 29.5145 27.7801 29.5145H19.8911C19.227 29.5145 18.6256 29.4247 18.1051 29.2273C17.0371 28.8324 16.3101 28.0157 16.0498 26.7053C16.4088 26.7861 16.7947 26.822 17.1986 26.822H25.0876C27.457 26.822 29.0366 25.6373 29.0366 22.873V18.2509C29.0366 17.829 29.0007 17.4521 28.9289 17.1021C30.6342 17.4611 31.7291 18.6637 31.7291 20.9434Z" stroke="white" stroke-width="1.71429" stroke-miterlimit="10" stroke-linecap="round" stroke-linejoin="round"/>
<path d="M16.0039 18.5919V22.5409M26.2731 18.5919V22.5409M21.1358 22.9358C21.7642 22.9358 22.3669 22.6862 22.8112 22.2418C23.2556 21.7975 23.5052 21.1948 23.5052 20.5664C23.5052 19.938 23.2556 19.3354 22.8112 18.891C22.3669 18.4467 21.7642 18.197 21.1358 18.197C20.5074 18.197 19.9047 18.4467 19.4604 18.891C19.016 19.3354 18.7664 19.938 18.7664 20.5664C18.7664 21.1948 19.016 21.7975 19.4604 22.2418C19.9047 22.6862 20.5074 22.9358 21.1358 22.9358Z" stroke="white" stroke-width="1.71429" stroke-miterlimit="10" stroke-linecap="round" stroke-linejoin="round"/>
</svg>
