<svg width="24" height="24" viewBox="0 0 24 24" fill="none" xmlns="http://www.w3.org/2000/svg">
<path d="M13.925 19C13.5083 19 13.2127 18.8207 13.038 18.462C12.8627 18.104 12.8917 17.7583 13.125 17.425L17 12L13.125 6.575C12.8917 6.24167 12.8627 5.89567 13.038 5.537C13.2127 5.179 13.5083 5 13.925 5C14.1083 5 14.275 5.04567 14.425 5.137C14.575 5.229 14.7 5.34167 14.8 5.475L19.025 11.425C19.0917 11.5083 19.1417 11.6 19.175 11.7C19.2083 11.8 19.225 11.9 19.225 12C19.225 12.1 19.2083 12.1957 19.175 12.287C19.1417 12.379 19.0917 12.475 19.025 12.575L14.8 18.525C14.7 18.6583 14.575 18.771 14.425 18.863C14.275 18.9543 14.1083 19 13.925 19ZM7.975 19C7.55833 19 7.26266 18.8207 7.088 18.462C6.91266 18.104 6.94166 17.7583 7.175 17.425L11.05 12L7.175 6.575C6.94166 6.24167 6.91266 5.89567 7.088 5.537C7.26266 5.179 7.55833 5 7.975 5C8.15833 5 8.325 5.04567 8.475 5.137C8.625 5.229 8.75 5.34167 8.85 5.475L13.075 11.425C13.1417 11.5083 13.1917 11.6 13.225 11.7C13.2583 11.8 13.275 11.9 13.275 12C13.275 12.1 13.2583 12.2 13.225 12.3C13.1917 12.4 13.1417 12.4917 13.075 12.575L8.85 18.525C8.75 18.6583 8.625 18.771 8.475 18.863C8.325 18.9543 8.15833 19 7.975 19Z" fill="white"/>
</svg>
