<svg width="25" height="26" viewBox="0 0 25 26" fill="none" xmlns="http://www.w3.org/2000/svg">
<mask id="path-1-outside-1_435_15" maskUnits="userSpaceOnUse" x="0" y="1" width="24" height="25" fill="black">
<rect fill="white" y="1" width="24" height="25"/>
<path fill-rule="evenodd" clip-rule="evenodd" d="M3.88554 2H3.80539C3.43828 2 3.12248 2 2.84354 2.06573C2.41173 2.16891 2.01691 2.38962 1.70284 2.70341C1.38876 3.01721 1.16769 3.41182 1.06412 3.84354C1 4.12248 1 4.43668 1 4.80539V8.81308C1 9.18019 1 9.496 1.06573 9.77493C1.16891 10.2067 1.38962 10.6016 1.70341 10.9156C2.01721 11.2297 2.41182 11.4508 2.84354 11.5543C3.12248 11.6185 3.43668 11.6185 3.80539 11.6185H7.81308C8.18019 11.6185 8.496 11.6185 8.77493 11.5527C9.20674 11.4496 9.60156 11.2288 9.91563 10.9151C10.2297 10.6013 10.4508 10.2066 10.5543 9.77493C10.6185 9.496 10.6185 9.18179 10.6185 8.81308V4.80539C10.6185 4.43828 10.6185 4.12248 10.5527 3.84354C10.4496 3.41173 10.2288 3.01691 9.91506 2.70284C9.60127 2.38876 9.20665 2.16769 8.77493 2.06412C8.496 2 8.18179 2 7.81308 2H3.88554ZM3.21706 3.62552C3.28599 3.60949 3.3934 3.60308 3.88554 3.60308H7.73293C8.22668 3.60308 8.33248 3.60789 8.40141 3.62552C8.54542 3.65996 8.67707 3.73361 8.78177 3.83831C8.88646 3.943 8.96012 4.07466 8.99455 4.21866C9.01058 4.28599 9.01539 4.39179 9.01539 4.88554V8.73293C9.01539 9.22668 9.01058 9.33248 8.99295 9.40141C8.95851 9.54542 8.88486 9.67707 8.78016 9.78177C8.67547 9.88646 8.54381 9.96012 8.39981 9.99455C8.33408 10.009 8.22828 10.0154 7.73293 10.0154H3.88554C3.39179 10.0154 3.28599 10.0106 3.21706 9.99295C3.07305 9.95851 2.9414 9.88486 2.8367 9.78016C2.73201 9.67547 2.65835 9.54381 2.62392 9.39981C2.60949 9.33408 2.60308 9.22828 2.60308 8.73293V4.88554C2.60308 4.39179 2.60789 4.28599 2.62552 4.21706C2.65996 4.07305 2.73361 3.9414 2.83831 3.8367C2.943 3.73201 3.07466 3.65835 3.21866 3.62392L3.21706 3.62552ZM3.80539 15.0713H7.81308C8.18019 15.0713 8.496 15.0713 8.77493 15.137C9.20674 15.2402 9.60156 15.4609 9.91563 15.7747C10.2297 16.0885 10.4508 16.4831 10.5543 16.9148C10.6185 17.1937 10.6185 17.5079 10.6185 17.8766V21.8843C10.6185 22.2514 10.6185 22.5673 10.5527 22.8462C10.4496 23.278 10.2288 23.6728 9.91506 23.9869C9.60127 24.301 9.20665 24.522 8.77493 24.6256C8.496 24.6897 8.18179 24.6897 7.81308 24.6897H3.80539C3.43828 24.6897 3.12248 24.6897 2.84354 24.624C2.41173 24.5208 2.01691 24.3001 1.70284 23.9863C1.38876 23.6725 1.16769 23.2779 1.06412 22.8462C1 22.5673 1 22.253 1 21.8843V17.8766C1 17.5095 1 17.1937 1.06573 16.9148C1.16891 16.483 1.38962 16.0882 1.70341 15.7741C2.01721 15.46 2.41182 15.2389 2.84354 15.1354C3.12248 15.0713 3.43668 15.0713 3.80539 15.0713ZM3.88554 16.6743C3.39179 16.6743 3.28599 16.6791 3.21706 16.6968C3.07305 16.7312 2.9414 16.8049 2.8367 16.9096C2.73201 17.0143 2.65835 17.1459 2.62392 17.2899C2.60949 17.3556 2.60308 17.4614 2.60308 17.9568V21.8042C2.60308 22.2979 2.60789 22.4037 2.62552 22.4727C2.65996 22.6167 2.73361 22.7483 2.83831 22.853C2.943 22.9577 3.07466 23.0314 3.21866 23.0658C3.28599 23.0818 3.39179 23.0866 3.88554 23.0866H7.73293C8.22668 23.0866 8.33248 23.0802 8.40141 23.0642C8.54542 23.0298 8.67707 22.9561 8.78177 22.8514C8.88646 22.7467 8.96012 22.6151 8.99455 22.4711C9.01058 22.4037 9.01539 22.2979 9.01539 21.8042V17.9568C9.01539 17.463 9.01058 17.3572 8.99295 17.2883C8.95851 17.1443 8.88486 17.0127 8.78016 16.908C8.67547 16.8033 8.54381 16.7296 8.39981 16.6952C8.33408 16.6807 8.22828 16.6743 7.73293 16.6743H3.88554ZM16.0319 15.0713H15.9518C15.5847 15.0713 15.2689 15.0713 14.9899 15.137C14.5581 15.2402 14.1633 15.4609 13.8492 15.7747C13.5352 16.0885 13.3141 16.4831 13.2105 16.9148C13.1464 17.1937 13.1464 17.5079 13.1464 17.8766V21.8843C13.1464 22.2514 13.1464 22.5673 13.2121 22.8462C13.3153 23.278 13.536 23.6728 13.8498 23.9869C14.1636 24.301 14.5582 24.522 14.9899 24.6256C15.2689 24.6913 15.5847 24.6913 15.9518 24.6913H19.9595C20.3266 24.6913 20.6424 24.6913 20.9213 24.6256C21.3529 24.5222 21.7473 24.3013 22.0611 23.9876C22.3749 23.6738 22.5957 23.2793 22.6991 22.8478C22.7649 22.5689 22.7649 22.253 22.7649 21.8859V17.8766C22.7649 17.5095 22.7649 17.1937 22.6991 16.9148C22.596 16.483 22.3752 16.0882 22.0615 15.7741C21.7477 15.46 21.3531 15.2389 20.9213 15.1354C20.6424 15.0713 20.3282 15.0713 19.9595 15.0713H16.0319ZM15.3635 16.6968C15.4324 16.6807 15.5398 16.6743 16.0319 16.6743H19.8793C20.3731 16.6743 20.4789 16.6791 20.5478 16.6968C20.6918 16.7312 20.8235 16.8049 20.9282 16.9096C21.0329 17.0143 21.1065 17.1459 21.141 17.2899C21.157 17.3572 21.1618 17.463 21.1618 17.9568V21.8042C21.1618 22.2979 21.1554 22.4037 21.1394 22.4727C21.1049 22.6167 21.0313 22.7483 20.9266 22.853C20.8219 22.9577 20.6902 23.0314 20.5462 23.0658C20.4789 23.0818 20.3731 23.0866 19.8793 23.0866H16.0319C15.5382 23.0866 15.4324 23.0802 15.3635 23.0642C15.2195 23.0298 15.0878 22.9561 14.9831 22.8514C14.8784 22.7467 14.8048 22.6151 14.7703 22.4711C14.7559 22.4053 14.7495 22.2995 14.7495 21.8042V17.9568C14.7495 17.463 14.7543 17.3572 14.7719 17.2883C14.8064 17.1443 14.88 17.0127 14.9847 16.908C15.0894 16.8033 15.2211 16.7296 15.3651 16.6952L15.3635 16.6968Z"/>
</mask>
<path fill-rule="evenodd" clip-rule="evenodd" d="M3.88554 2H3.80539C3.43828 2 3.12248 2 2.84354 2.06573C2.41173 2.16891 2.01691 2.38962 1.70284 2.70341C1.38876 3.01721 1.16769 3.41182 1.06412 3.84354C1 4.12248 1 4.43668 1 4.80539V8.81308C1 9.18019 1 9.496 1.06573 9.77493C1.16891 10.2067 1.38962 10.6016 1.70341 10.9156C2.01721 11.2297 2.41182 11.4508 2.84354 11.5543C3.12248 11.6185 3.43668 11.6185 3.80539 11.6185H7.81308C8.18019 11.6185 8.496 11.6185 8.77493 11.5527C9.20674 11.4496 9.60156 11.2288 9.91563 10.9151C10.2297 10.6013 10.4508 10.2066 10.5543 9.77493C10.6185 9.496 10.6185 9.18179 10.6185 8.81308V4.80539C10.6185 4.43828 10.6185 4.12248 10.5527 3.84354C10.4496 3.41173 10.2288 3.01691 9.91506 2.70284C9.60127 2.38876 9.20665 2.16769 8.77493 2.06412C8.496 2 8.18179 2 7.81308 2H3.88554ZM3.21706 3.62552C3.28599 3.60949 3.3934 3.60308 3.88554 3.60308H7.73293C8.22668 3.60308 8.33248 3.60789 8.40141 3.62552C8.54542 3.65996 8.67707 3.73361 8.78177 3.83831C8.88646 3.943 8.96012 4.07466 8.99455 4.21866C9.01058 4.28599 9.01539 4.39179 9.01539 4.88554V8.73293C9.01539 9.22668 9.01058 9.33248 8.99295 9.40141C8.95851 9.54542 8.88486 9.67707 8.78016 9.78177C8.67547 9.88646 8.54381 9.96012 8.39981 9.99455C8.33408 10.009 8.22828 10.0154 7.73293 10.0154H3.88554C3.39179 10.0154 3.28599 10.0106 3.21706 9.99295C3.07305 9.95851 2.9414 9.88486 2.8367 9.78016C2.73201 9.67547 2.65835 9.54381 2.62392 9.39981C2.60949 9.33408 2.60308 9.22828 2.60308 8.73293V4.88554C2.60308 4.39179 2.60789 4.28599 2.62552 4.21706C2.65996 4.07305 2.73361 3.9414 2.83831 3.8367C2.943 3.73201 3.07466 3.65835 3.21866 3.62392L3.21706 3.62552ZM3.80539 15.0713H7.81308C8.18019 15.0713 8.496 15.0713 8.77493 15.137C9.20674 15.2402 9.60156 15.4609 9.91563 15.7747C10.2297 16.0885 10.4508 16.4831 10.5543 16.9148C10.6185 17.1937 10.6185 17.5079 10.6185 17.8766V21.8843C10.6185 22.2514 10.6185 22.5673 10.5527 22.8462C10.4496 23.278 10.2288 23.6728 9.91506 23.9869C9.60127 24.301 9.20665 24.522 8.77493 24.6256C8.496 24.6897 8.18179 24.6897 7.81308 24.6897H3.80539C3.43828 24.6897 3.12248 24.6897 2.84354 24.624C2.41173 24.5208 2.01691 24.3001 1.70284 23.9863C1.38876 23.6725 1.16769 23.2779 1.06412 22.8462C1 22.5673 1 22.253 1 21.8843V17.8766C1 17.5095 1 17.1937 1.06573 16.9148C1.16891 16.483 1.38962 16.0882 1.70341 15.7741C2.01721 15.46 2.41182 15.2389 2.84354 15.1354C3.12248 15.0713 3.43668 15.0713 3.80539 15.0713ZM3.88554 16.6743C3.39179 16.6743 3.28599 16.6791 3.21706 16.6968C3.07305 16.7312 2.9414 16.8049 2.8367 16.9096C2.73201 17.0143 2.65835 17.1459 2.62392 17.2899C2.60949 17.3556 2.60308 17.4614 2.60308 17.9568V21.8042C2.60308 22.2979 2.60789 22.4037 2.62552 22.4727C2.65996 22.6167 2.73361 22.7483 2.83831 22.853C2.943 22.9577 3.07466 23.0314 3.21866 23.0658C3.28599 23.0818 3.39179 23.0866 3.88554 23.0866H7.73293C8.22668 23.0866 8.33248 23.0802 8.40141 23.0642C8.54542 23.0298 8.67707 22.9561 8.78177 22.8514C8.88646 22.7467 8.96012 22.6151 8.99455 22.4711C9.01058 22.4037 9.01539 22.2979 9.01539 21.8042V17.9568C9.01539 17.463 9.01058 17.3572 8.99295 17.2883C8.95851 17.1443 8.88486 17.0127 8.78016 16.908C8.67547 16.8033 8.54381 16.7296 8.39981 16.6952C8.33408 16.6807 8.22828 16.6743 7.73293 16.6743H3.88554ZM16.0319 15.0713H15.9518C15.5847 15.0713 15.2689 15.0713 14.9899 15.137C14.5581 15.2402 14.1633 15.4609 13.8492 15.7747C13.5352 16.0885 13.3141 16.4831 13.2105 16.9148C13.1464 17.1937 13.1464 17.5079 13.1464 17.8766V21.8843C13.1464 22.2514 13.1464 22.5673 13.2121 22.8462C13.3153 23.278 13.536 23.6728 13.8498 23.9869C14.1636 24.301 14.5582 24.522 14.9899 24.6256C15.2689 24.6913 15.5847 24.6913 15.9518 24.6913H19.9595C20.3266 24.6913 20.6424 24.6913 20.9213 24.6256C21.3529 24.5222 21.7473 24.3013 22.0611 23.9876C22.3749 23.6738 22.5957 23.2793 22.6991 22.8478C22.7649 22.5689 22.7649 22.253 22.7649 21.8859V17.8766C22.7649 17.5095 22.7649 17.1937 22.6991 16.9148C22.596 16.483 22.3752 16.0882 22.0615 15.7741C21.7477 15.46 21.3531 15.2389 20.9213 15.1354C20.6424 15.0713 20.3282 15.0713 19.9595 15.0713H16.0319ZM15.3635 16.6968C15.4324 16.6807 15.5398 16.6743 16.0319 16.6743H19.8793C20.3731 16.6743 20.4789 16.6791 20.5478 16.6968C20.6918 16.7312 20.8235 16.8049 20.9282 16.9096C21.0329 17.0143 21.1065 17.1459 21.141 17.2899C21.157 17.3572 21.1618 17.463 21.1618 17.9568V21.8042C21.1618 22.2979 21.1554 22.4037 21.1394 22.4727C21.1049 22.6167 21.0313 22.7483 20.9266 22.853C20.8219 22.9577 20.6902 23.0314 20.5462 23.0658C20.4789 23.0818 20.3731 23.0866 19.8793 23.0866H16.0319C15.5382 23.0866 15.4324 23.0802 15.3635 23.0642C15.2195 23.0298 15.0878 22.9561 14.9831 22.8514C14.8784 22.7467 14.8048 22.6151 14.7703 22.4711C14.7559 22.4053 14.7495 22.2995 14.7495 21.8042V17.9568C14.7495 17.463 14.7543 17.3572 14.7719 17.2883C14.8064 17.1443 14.88 17.0127 14.9847 16.908C15.0894 16.8033 15.2211 16.7296 15.3651 16.6952L15.3635 16.6968Z" fill="white"/>
<path fill-rule="evenodd" clip-rule="evenodd" d="M3.88554 2H3.80539C3.43828 2 3.12248 2 2.84354 2.06573C2.41173 2.16891 2.01691 2.38962 1.70284 2.70341C1.38876 3.01721 1.16769 3.41182 1.06412 3.84354C1 4.12248 1 4.43668 1 4.80539V8.81308C1 9.18019 1 9.496 1.06573 9.77493C1.16891 10.2067 1.38962 10.6016 1.70341 10.9156C2.01721 11.2297 2.41182 11.4508 2.84354 11.5543C3.12248 11.6185 3.43668 11.6185 3.80539 11.6185H7.81308C8.18019 11.6185 8.496 11.6185 8.77493 11.5527C9.20674 11.4496 9.60156 11.2288 9.91563 10.9151C10.2297 10.6013 10.4508 10.2066 10.5543 9.77493C10.6185 9.496 10.6185 9.18179 10.6185 8.81308V4.80539C10.6185 4.43828 10.6185 4.12248 10.5527 3.84354C10.4496 3.41173 10.2288 3.01691 9.91506 2.70284C9.60127 2.38876 9.20665 2.16769 8.77493 2.06412C8.496 2 8.18179 2 7.81308 2H3.88554ZM3.21706 3.62552C3.28599 3.60949 3.3934 3.60308 3.88554 3.60308H7.73293C8.22668 3.60308 8.33248 3.60789 8.40141 3.62552C8.54542 3.65996 8.67707 3.73361 8.78177 3.83831C8.88646 3.943 8.96012 4.07466 8.99455 4.21866C9.01058 4.28599 9.01539 4.39179 9.01539 4.88554V8.73293C9.01539 9.22668 9.01058 9.33248 8.99295 9.40141C8.95851 9.54542 8.88486 9.67707 8.78016 9.78177C8.67547 9.88646 8.54381 9.96012 8.39981 9.99455C8.33408 10.009 8.22828 10.0154 7.73293 10.0154H3.88554C3.39179 10.0154 3.28599 10.0106 3.21706 9.99295C3.07305 9.95851 2.9414 9.88486 2.8367 9.78016C2.73201 9.67547 2.65835 9.54381 2.62392 9.39981C2.60949 9.33408 2.60308 9.22828 2.60308 8.73293V4.88554C2.60308 4.39179 2.60789 4.28599 2.62552 4.21706C2.65996 4.07305 2.73361 3.9414 2.83831 3.8367C2.943 3.73201 3.07466 3.65835 3.21866 3.62392L3.21706 3.62552ZM3.80539 15.0713H7.81308C8.18019 15.0713 8.496 15.0713 8.77493 15.137C9.20674 15.2402 9.60156 15.4609 9.91563 15.7747C10.2297 16.0885 10.4508 16.4831 10.5543 16.9148C10.6185 17.1937 10.6185 17.5079 10.6185 17.8766V21.8843C10.6185 22.2514 10.6185 22.5673 10.5527 22.8462C10.4496 23.278 10.2288 23.6728 9.91506 23.9869C9.60127 24.301 9.20665 24.522 8.77493 24.6256C8.496 24.6897 8.18179 24.6897 7.81308 24.6897H3.80539C3.43828 24.6897 3.12248 24.6897 2.84354 24.624C2.41173 24.5208 2.01691 24.3001 1.70284 23.9863C1.38876 23.6725 1.16769 23.2779 1.06412 22.8462C1 22.5673 1 22.253 1 21.8843V17.8766C1 17.5095 1 17.1937 1.06573 16.9148C1.16891 16.483 1.38962 16.0882 1.70341 15.7741C2.01721 15.46 2.41182 15.2389 2.84354 15.1354C3.12248 15.0713 3.43668 15.0713 3.80539 15.0713ZM3.88554 16.6743C3.39179 16.6743 3.28599 16.6791 3.21706 16.6968C3.07305 16.7312 2.9414 16.8049 2.8367 16.9096C2.73201 17.0143 2.65835 17.1459 2.62392 17.2899C2.60949 17.3556 2.60308 17.4614 2.60308 17.9568V21.8042C2.60308 22.2979 2.60789 22.4037 2.62552 22.4727C2.65996 22.6167 2.73361 22.7483 2.83831 22.853C2.943 22.9577 3.07466 23.0314 3.21866 23.0658C3.28599 23.0818 3.39179 23.0866 3.88554 23.0866H7.73293C8.22668 23.0866 8.33248 23.0802 8.40141 23.0642C8.54542 23.0298 8.67707 22.9561 8.78177 22.8514C8.88646 22.7467 8.96012 22.6151 8.99455 22.4711C9.01058 22.4037 9.01539 22.2979 9.01539 21.8042V17.9568C9.01539 17.463 9.01058 17.3572 8.99295 17.2883C8.95851 17.1443 8.88486 17.0127 8.78016 16.908C8.67547 16.8033 8.54381 16.7296 8.39981 16.6952C8.33408 16.6807 8.22828 16.6743 7.73293 16.6743H3.88554ZM16.0319 15.0713H15.9518C15.5847 15.0713 15.2689 15.0713 14.9899 15.137C14.5581 15.2402 14.1633 15.4609 13.8492 15.7747C13.5352 16.0885 13.3141 16.4831 13.2105 16.9148C13.1464 17.1937 13.1464 17.5079 13.1464 17.8766V21.8843C13.1464 22.2514 13.1464 22.5673 13.2121 22.8462C13.3153 23.278 13.536 23.6728 13.8498 23.9869C14.1636 24.301 14.5582 24.522 14.9899 24.6256C15.2689 24.6913 15.5847 24.6913 15.9518 24.6913H19.9595C20.3266 24.6913 20.6424 24.6913 20.9213 24.6256C21.3529 24.5222 21.7473 24.3013 22.0611 23.9876C22.3749 23.6738 22.5957 23.2793 22.6991 22.8478C22.7649 22.5689 22.7649 22.253 22.7649 21.8859V17.8766C22.7649 17.5095 22.7649 17.1937 22.6991 16.9148C22.596 16.483 22.3752 16.0882 22.0615 15.7741C21.7477 15.46 21.3531 15.2389 20.9213 15.1354C20.6424 15.0713 20.3282 15.0713 19.9595 15.0713H16.0319ZM15.3635 16.6968C15.4324 16.6807 15.5398 16.6743 16.0319 16.6743H19.8793C20.3731 16.6743 20.4789 16.6791 20.5478 16.6968C20.6918 16.7312 20.8235 16.8049 20.9282 16.9096C21.0329 17.0143 21.1065 17.1459 21.141 17.2899C21.157 17.3572 21.1618 17.463 21.1618 17.9568V21.8042C21.1618 22.2979 21.1554 22.4037 21.1394 22.4727C21.1049 22.6167 21.0313 22.7483 20.9266 22.853C20.8219 22.9577 20.6902 23.0314 20.5462 23.0658C20.4789 23.0818 20.3731 23.0866 19.8793 23.0866H16.0319C15.5382 23.0866 15.4324 23.0802 15.3635 23.0642C15.2195 23.0298 15.0878 22.9561 14.9831 22.8514C14.8784 22.7467 14.8048 22.6151 14.7703 22.4711C14.7559 22.4053 14.7495 22.2995 14.7495 21.8042V17.9568C14.7495 17.463 14.7543 17.3572 14.7719 17.2883C14.8064 17.1443 14.88 17.0127 14.9847 16.908C15.0894 16.8033 15.2211 16.7296 15.3651 16.6952L15.3635 16.6968Z" stroke="white" mask="url(#path-1-outside-1_435_15)"/>
<path d="M17.3731 2.08731L17.3731 2.08726L17.3636 2.09337C17.0918 2.26796 16.8622 2.49834 16.7184 2.64269C16.7084 2.65272 16.6988 2.66232 16.6897 2.67147L14.9015 4.45961L14.865 4.4961C14.8559 4.50523 14.8463 4.51481 14.8362 4.52483C14.6926 4.66787 14.4593 4.90033 14.2841 5.17617L14.2841 5.17616L14.2821 5.17933C14.0133 5.60547 13.8595 6.09813 13.8455 6.6063L15.0951 6.64063L13.8455 6.6063C13.8316 7.11522 13.9587 7.62084 14.2222 8.06305L14.2222 8.06308L14.2286 8.07372C14.4006 8.3558 14.634 8.58804 14.7696 8.72303C14.7796 8.73292 14.789 8.7423 14.7978 8.75113L16.5264 10.4797C16.5352 10.4885 16.5446 10.4979 16.5545 10.5079C16.6887 10.6428 16.9241 10.8794 17.2107 11.0519L17.2107 11.0519L17.2142 11.054C17.6562 11.3179 18.1617 11.4455 18.6706 11.432C19.1788 11.4185 19.6716 11.2651 20.098 10.9967L20.098 10.9967L20.1021 10.9941C20.3779 10.8189 20.6104 10.5856 20.7534 10.442C20.7634 10.4319 20.773 10.4223 20.7821 10.4132L22.6068 8.58857C22.6159 8.57944 22.6255 8.56986 22.6356 8.55984C22.7792 8.4168 23.0125 8.18434 23.1877 7.9085L23.1877 7.90851L23.1901 7.90461C23.4585 7.4785 23.612 6.986 23.6257 6.47808C23.6394 5.9694 23.5122 5.46409 23.2487 5.02215L23.2487 5.02215L23.2461 5.0178C23.0737 4.73119 22.8371 4.49585 22.7021 4.3616C22.6922 4.35169 22.6828 4.34233 22.674 4.33354L20.9447 2.60425C20.9359 2.59546 20.9265 2.58605 20.9166 2.57609C20.7824 2.44113 20.547 2.20453 20.2604 2.0321L20.2604 2.03209L20.2569 2.02998C19.8149 1.76606 19.3094 1.63843 18.8005 1.65195L18.8337 2.90151L18.8005 1.65195C18.2923 1.66546 17.7995 1.81885 17.3731 2.08731Z" stroke="white" stroke-width="2.5"/>
</svg>
