<svg width="60" height="60" viewBox="0 0 60 60" fill="none" xmlns="http://www.w3.org/2000/svg">
<circle cx="30" cy="30" r="30" fill="#36998D"/>
<path d="M29.5003 36.9919C30.7822 36.9919 32.0116 36.4826 32.918 35.5762C33.8244 34.6698 34.3337 33.4404 34.3337 32.1585C34.3337 30.8766 33.8244 29.6473 32.918 28.7408C32.0116 27.8344 30.7822 27.3252 29.5003 27.3252C28.2184 27.3252 26.9891 27.8344 26.0826 28.7408C25.1762 29.6473 24.667 30.8766 24.667 32.1585C24.667 33.4404 25.1762 34.6698 26.0826 35.5762C26.9891 36.4826 28.2184 36.9919 29.5003 36.9919Z" stroke="white" stroke-width="2" stroke-miterlimit="10" stroke-linecap="round" stroke-linejoin="round"/>
<path d="M27.6152 32.2789L28.4007 33.0643C28.6302 33.2939 29.0048 33.2939 29.2344 33.0764L31.3852 31.0947" stroke="white" stroke-width="2" stroke-linecap="round" stroke-linejoin="round"/>
<path d="M24.6667 22.2498V21.2832C24.6667 19.1444 24.6667 17.4165 28.5333 17.4165H30.4667C34.3333 17.4165 34.3333 19.1444 34.3333 21.2832V22.2498M24.6667 41.5832H34.3333C39.1908 41.5832 40.0608 39.6378 40.3146 37.2694L41.2208 27.6028C41.5471 24.6544 40.7012 22.2498 35.5417 22.2498H23.4583C18.2987 22.2498 17.4529 24.6544 17.7792 27.6028L18.6854 37.2694C18.9392 39.6378 19.8092 41.5832 24.6667 41.5832Z" stroke="white" stroke-width="2" stroke-miterlimit="10" stroke-linecap="round" stroke-linejoin="round"/>
<path d="M41.1606 28.2915C39.1145 29.782 36.8008 30.865 34.3456 31.4815M18.166 28.6178C20.1839 29.9953 22.3831 30.974 24.6668 31.5298" stroke="white" stroke-width="2" stroke-miterlimit="10" stroke-linecap="round" stroke-linejoin="round"/>
</svg>
