<svg width="45" height="45" viewBox="0 0 45 45" fill="none" xmlns="http://www.w3.org/2000/svg">
<circle cx="22.2857" cy="22.7144" r="22.2857" fill="#36998D"/>
<path d="M18.3223 22.521H24.6048M18.3223 26.111H22.2533M20.1173 16.9565H23.7073C25.5023 16.9565 25.5023 16.059 25.5023 15.1615C25.5023 13.3665 24.6048 13.3665 23.7073 13.3665H20.1173C19.2198 13.3665 18.3223 13.3665 18.3223 15.1615C18.3223 16.9565 19.2198 16.9565 20.1173 16.9565Z" stroke="white" stroke-width="1.71429" stroke-miterlimit="10" stroke-linecap="round" stroke-linejoin="round"/>
<path d="M25.5025 15.1794C28.4911 15.341 29.99 16.4449 29.99 20.5465V25.9315C29.99 29.5215 29.0925 31.3165 24.605 31.3165H19.22C14.7325 31.3165 13.835 29.5215 13.835 25.9315V20.5465C13.835 16.4539 15.3338 15.341 18.3225 15.1794" stroke="white" stroke-width="1.71429" stroke-miterlimit="10" stroke-linecap="round" stroke-linejoin="round"/>
</svg>
