<svg width="16" height="16" viewBox="0 0 16 16" fill="none" xmlns="http://www.w3.org/2000/svg">
<path d="M8.00016 12.1334C8.70741 12.1334 9.38568 11.8524 9.88578 11.3523C10.3859 10.8522 10.6668 10.174 10.6668 9.46672C10.6668 8.75947 10.3859 8.08119 9.88578 7.5811C9.38568 7.081 8.70741 6.80005 8.00016 6.80005C7.29292 6.80005 6.61464 7.081 6.11454 7.5811C5.61445 8.08119 5.3335 8.75947 5.3335 9.46672C5.3335 10.174 5.61445 10.8522 6.11454 11.3523C6.61464 11.8524 7.29292 12.1334 8.00016 12.1334Z" stroke="#1D1D1D" stroke-opacity="0.3" stroke-width="1.5" stroke-miterlimit="10" stroke-linecap="round" stroke-linejoin="round"/>
<path d="M6.95996 9.53322L7.39329 9.96655C7.51996 10.0932 7.72663 10.0932 7.85329 9.97322L9.03996 8.87988" stroke="#1D1D1D" stroke-opacity="0.3" stroke-width="1.5" stroke-linecap="round" stroke-linejoin="round"/>
<path d="M5.33338 3.99992V3.46659C5.33338 2.28659 5.33338 1.33325 7.46671 1.33325H8.53338C10.6667 1.33325 10.6667 2.28659 10.6667 3.46659V3.99992M5.33338 14.6666H10.6667C13.3467 14.6666 13.8267 13.5933 13.9667 12.2866L14.4667 6.95325C14.6467 5.32659 14.18 3.99992 11.3334 3.99992H4.66671C1.82005 3.99992 1.35338 5.32659 1.53338 6.95325L2.03338 12.2866C2.17338 13.5933 2.65338 14.6666 5.33338 14.6666Z" stroke="#1D1D1D" stroke-opacity="0.3" stroke-width="1.5" stroke-miterlimit="10" stroke-linecap="round" stroke-linejoin="round"/>
<path d="M14.4332 7.33325C13.3044 8.1556 12.0278 8.75312 10.6732 9.09325M1.74658 7.51325C2.85992 8.27325 4.07325 8.81325 5.33325 9.11992" stroke="#1D1D1D" stroke-opacity="0.3" stroke-width="1.5" stroke-miterlimit="10" stroke-linecap="round" stroke-linejoin="round"/>
</svg>
