<svg width="22" height="22" viewBox="0 0 22 22" fill="none" xmlns="http://www.w3.org/2000/svg">
<path d="M4.59997 16.759C3.59997 15.899 2.68997 14.839 1.88997 13.589C0.989966 12.179 0.989966 9.809 1.88997 8.399C3.06997 6.549 4.50997 5.099 6.11997 4.129M16.82 4.77C15.07 3.45 13.07 2.73 11 2.73M7.42197 18.53C8.56197 19.01 9.77197 19.27 11.002 19.27C14.532 19.27 17.822 17.19 20.112 13.59C21.012 12.18 21.012 9.81 20.112 8.4C19.782 7.88 19.422 7.39 19.052 6.93M13.532 8.472L8.47197 13.532C8.13972 13.1998 7.87617 12.8053 7.69636 12.3712C7.51655 11.9371 7.42401 11.4719 7.42401 11.002C7.42401 10.5321 7.51655 10.0669 7.69636 9.63277C7.87617 9.19867 8.13972 8.80424 8.47197 8.472C8.80421 8.13975 9.19864 7.8762 9.63274 7.69639C10.0668 7.51658 10.5321 7.42404 11.002 7.42404C11.4718 7.42404 11.9371 7.51658 12.3712 7.69639C12.8053 7.8762 13.1997 8.13975 13.532 8.472Z" stroke="#1D1D1D" stroke-opacity="0.3" stroke-width="1.5" stroke-linecap="round" stroke-linejoin="round"/>
<path d="M14.511 11.7C14.3755 12.3976 14.0347 13.0387 13.5322 13.5412C13.0297 14.0437 12.3886 14.3845 11.691 14.52M8.47 13.531L1 21.001M21.001 1L13.531 8.47" stroke="#1D1D1D" stroke-opacity="0.3" stroke-width="1.5" stroke-linecap="round" stroke-linejoin="round"/>
</svg>
