<svg width="22" height="22" viewBox="0 0 22 22" fill="none" xmlns="http://www.w3.org/2000/svg">
<path d="M7.16 5.6499H14.83C15.47 5.6499 15.99 6.1699 15.99 6.8099V8.0899C15.99 8.5599 15.7 9.1399 15.41 9.4299L12.91 11.6399C12.56 11.9299 12.33 12.5099 12.33 12.9799V15.4799C12.33 15.8299 12.1 16.2899 11.81 16.4699L11 16.9799C10.24 17.4499 9.2 16.9199 9.2 15.9899V12.9099C9.2 12.4999 8.97 11.9799 8.73 11.6899L6.52 9.3599C6.23 9.0799 6 8.5499 6 8.1999V6.8699C6 6.1699 6.52 5.6499 7.16 5.6499Z" stroke="#36998D" stroke-width="2" stroke-miterlimit="10" stroke-linecap="round" stroke-linejoin="round"/>
<path d="M8 21H14C19 21 21 19 21 14V8C21 3 19 1 14 1H8C3 1 1 3 1 8V14C1 19 3 21 8 21Z" stroke="#36998D" stroke-width="2" stroke-linecap="round" stroke-linejoin="round"/>
</svg>
