<svg width="31" height="31" viewBox="0 0 31 31" fill="none" xmlns="http://www.w3.org/2000/svg">
<rect opacity="0.05" width="31" height="31" rx="7" fill="#1D1D1D"/>
<path d="M11.4165 16.9168H15.9998M11.4165 20.5835H19.6665M22.4165 12.3335C23.1458 12.3335 23.8453 12.0438 24.361 11.528C24.8768 11.0123 25.1665 10.3128 25.1665 9.5835C25.1665 8.85415 24.8768 8.15468 24.361 7.63895C23.8453 7.12323 23.1458 6.8335 22.4165 6.8335C21.6872 6.8335 20.9877 7.12323 20.472 7.63895C19.9562 8.15468 19.6665 8.85415 19.6665 9.5835C19.6665 10.3128 19.9562 11.0123 20.472 11.528C20.9877 12.0438 21.6872 12.3335 22.4165 12.3335Z" stroke="#1D1D1D" stroke-width="1.5" stroke-linecap="round" stroke-linejoin="round"/>
<path d="M17.8335 6.8335H13.2502C8.66683 6.8335 6.8335 8.66683 6.8335 13.2502V18.7502C6.8335 23.3335 8.66683 25.1668 13.2502 25.1668H18.7502C23.3335 25.1668 25.1668 23.3335 25.1668 18.7502V14.1668" stroke="#1D1D1D" stroke-width="1.5" stroke-linecap="round" stroke-linejoin="round"/>
</svg>
