<svg width="25" height="25" viewBox="0 0 25 25" fill="none" xmlns="http://www.w3.org/2000/svg">
<path d="M9.1475 2.19494L3.08375 6.91994C2.07125 7.70744 1.25 9.38369 1.25 10.6549V18.9912C1.25 21.6012 3.37625 23.7387 5.98625 23.7387H19.0138C21.6238 23.7387 23.75 21.6012 23.75 19.0024V10.8124C23.75 9.45119 22.8388 7.70744 21.725 6.93119L14.7725 2.05994C13.1975 0.957439 10.6663 1.01369 9.1475 2.19494Z" stroke="#FF735F" stroke-width="1.5" stroke-linecap="round" stroke-linejoin="round"/>
<path d="M12.5 9.125V19.25M7.4375 14.1875H17.5625M10.8125 19.25H14.1875C16.0437 19.25 17.5625 17.7312 17.5625 15.875V12.5C17.5625 10.6438 16.0437 9.125 14.1875 9.125H10.8125C8.95625 9.125 7.4375 10.6438 7.4375 12.5V15.875C7.4375 17.7312 8.95625 19.25 10.8125 19.25Z" stroke="#FF735F" stroke-width="1.5" stroke-linecap="round" stroke-linejoin="round"/>
</svg>
