<svg width="22" height="22" viewBox="0 0 22 22" fill="none" xmlns="http://www.w3.org/2000/svg">
<path d="M9.06978 1.82009L2.13978 7.37009C1.35978 7.99009 0.859777 9.30009 1.02978 10.2801L2.35978 18.2401C2.59978 19.6601 3.95978 20.8101 5.39978 20.8101H16.5998C18.0298 20.8101 19.3998 19.6501 19.6398 18.2401L20.9698 10.2801C21.1298 9.30009 20.6298 7.99009 19.8598 7.37009L12.9298 1.83009C11.8598 0.970093 10.1298 0.970093 9.06978 1.82009Z" stroke="#1D1D1D" stroke-width="1.5" stroke-linecap="round" stroke-linejoin="round"/>
<path d="M11 14.5C11.663 14.5 12.2989 14.2366 12.7678 13.7678C13.2366 13.2989 13.5 12.663 13.5 12C13.5 11.337 13.2366 10.7011 12.7678 10.2322C12.2989 9.76339 11.663 9.5 11 9.5C10.337 9.5 9.70107 9.76339 9.23223 10.2322C8.76339 10.7011 8.5 11.337 8.5 12C8.5 12.663 8.76339 13.2989 9.23223 13.7678C9.70107 14.2366 10.337 14.5 11 14.5Z" stroke="#1D1D1D" stroke-width="1.5" stroke-linecap="round" stroke-linejoin="round"/>
</svg>
