<svg width="24" height="16" viewBox="0 0 24 16" fill="none" xmlns="http://www.w3.org/2000/svg">
<path d="M1.11674 0.6802C0.500184 0.6802 0 1.18012 0 1.79694V14.6355C0 15.2522 0.500256 15.7522 1.11674 15.7522H22.8833C23.4998 15.7522 24 15.2523 24 14.6355V1.79692C24 1.18019 23.4998 0.680176 22.8833 0.680176H1.11672L1.11674 0.6802ZM7.86974 2.49446C9.23969 2.49446 10.4979 2.97107 11.4855 3.7672C10.6546 4.5107 10.0348 5.48752 9.729 6.59471H10.2083C10.4905 5.68132 11.0032 4.8681 11.679 4.2232C12.3548 4.8681 12.8675 5.68132 13.1497 6.59471H13.6365C13.3265 5.49335 12.7058 4.52236 11.8755 3.78371C12.865 2.97748 14.1282 2.49443 15.504 2.49443C18.679 2.49443 21.2527 5.06848 21.2527 8.24394C21.2527 11.4194 18.679 13.9935 15.504 13.9935C14.1053 13.9935 12.8227 13.4942 11.826 12.6637C12.7176 11.888 13.3749 10.8482 13.6755 9.6652H13.2067C12.9398 10.6581 12.4026 11.5412 11.679 12.2317C10.9554 11.5412 10.4189 10.6581 10.152 9.6652H9.70572C10.0081 10.831 10.6568 11.8563 11.535 12.6247C10.5401 13.4449 9.26256 13.9379 7.86972 13.9379C4.69476 13.9379 2.121 11.3763 2.121 8.2162C2.121 5.05612 4.69476 2.49446 7.86974 2.49446ZM15.0727 6.5362C14.382 6.5362 13.71 7.14009 13.71 8.27394C13.71 9.02582 14.073 9.52194 14.787 9.52194C14.9889 9.52202 15.3105 9.43946 15.3105 9.43946L15.417 8.78246C15.417 8.78246 15.1235 8.93094 14.922 8.93094C14.4976 8.93094 14.3273 8.60452 14.3273 8.25371C14.3273 7.54204 14.6924 7.15043 15.099 7.15043C15.4039 7.15043 15.6487 7.32294 15.6487 7.32294L15.7463 6.68394C15.7463 6.68394 15.3838 6.5362 15.0727 6.5362H15.0727ZM20.88 6.59171L20.2793 6.5932L20.1503 7.38371C20.1503 7.38371 19.9244 7.07694 19.5713 7.07694C19.0221 7.07694 18.5647 7.72926 18.5647 8.47946C18.5647 8.9637 18.8082 9.43869 19.3073 9.43869C19.6662 9.43869 19.8653 9.19197 19.8653 9.19197L19.839 9.40269H20.4225L20.88 6.59171ZM3.67349 6.59994L3.195 9.41769H3.77174L4.13626 7.29297L4.19026 9.41769H4.60274L5.37226 7.29297L5.031 9.41769H5.64374L6.11626 6.59994H5.16826L4.578 8.32869L4.54726 6.59997H3.67351L3.67349 6.59994ZM9.699 6.78294C9.68597 6.79602 9.35026 8.73191 9.35026 8.96769C9.35026 9.31679 9.54593 9.47272 9.82126 9.4702C10.0185 9.46852 10.1713 9.41896 10.242 9.3982C10.2494 9.39621 10.2637 9.3922 10.2637 9.3922L10.338 8.8882C10.2976 8.8882 10.2382 8.90546 10.1857 8.90546C9.98018 8.90546 9.95741 8.79609 9.97049 8.71494L10.1363 7.68671H10.449L10.5247 7.12943H10.23L10.29 6.78294H9.699ZM16.6703 7.06646C16.2677 7.06646 15.9593 7.1992 15.9593 7.1992L15.8737 7.71671C15.8737 7.71671 16.1285 7.61094 16.5135 7.61094C16.7321 7.61094 16.8922 7.63595 16.8922 7.81794C16.8922 7.92849 16.8727 7.96946 16.8727 7.96946C16.8727 7.96946 16.6999 7.95446 16.62 7.95446C16.1124 7.95446 15.579 8.17694 15.579 8.8462C15.579 9.37353 15.9291 9.4942 16.146 9.4942C16.5602 9.4942 16.7388 9.21904 16.7483 9.2182L16.7287 9.44771H17.2455L17.4765 7.79171C17.4766 7.08904 16.8781 7.06643 16.6703 7.06643V7.06646ZM6.97649 7.06946C6.57247 7.06946 6.26249 7.2022 6.26249 7.2022L6.177 7.71971C6.177 7.71971 6.4326 7.61394 6.819 7.61394C7.03841 7.61394 7.19926 7.63905 7.19926 7.82094C7.19926 7.93144 7.17974 7.97246 7.17974 7.97246C7.17974 7.97246 7.00639 7.95746 6.92626 7.95746C6.41666 7.95746 5.88151 8.17958 5.88151 8.84846C5.88151 9.3755 6.23234 9.49646 6.45 9.49646C6.8657 9.49646 7.04496 9.22127 7.05451 9.22046L7.035 9.44994H7.554L7.78574 7.79471C7.78574 7.09245 7.1851 7.06943 6.97649 7.06943V7.06946ZM8.80949 7.06946C8.37564 7.06946 7.935 7.24458 7.935 7.84271C7.935 8.52042 8.66926 8.45195 8.66926 8.73743C8.66926 8.92799 8.46434 8.94371 8.30626 8.94371C8.03266 8.94371 7.78663 8.84918 7.78574 8.85371L7.707 9.3712C7.72116 9.37559 7.87351 9.44394 8.36551 9.44394C8.49761 9.44394 9.25274 9.4775 9.25274 8.69094C9.25274 7.95561 8.55374 8.10136 8.55374 7.80594C8.55374 7.65887 8.66724 7.61246 8.87549 7.61246C8.95819 7.61246 9.27677 7.63871 9.27677 7.63871L9.35026 7.11594C9.35026 7.11602 9.1447 7.06946 8.80951 7.06946H8.80949ZM11.5215 7.06946C10.9186 7.06958 10.4723 7.71786 10.4723 8.4502C10.4723 9.29546 11.0315 9.49646 11.508 9.49646C11.9478 9.49646 12.1417 9.3982 12.1417 9.3982L12.2467 8.82146C12.2467 8.82146 11.9122 8.96846 11.61 8.96846C10.9662 8.96846 11.079 8.4892 11.079 8.4892H12.2977C12.2977 8.4892 12.3765 8.10189 12.3765 7.94394C12.3765 7.54986 12.1798 7.06946 11.5215 7.06946H11.5215ZM13.7048 7.0942C13.4332 7.0942 13.2315 7.45946 13.2315 7.45946L13.2855 7.1242H12.7215L12.3428 9.43871H12.966C13.1425 8.45034 13.1748 7.64781 13.596 7.79471C13.6697 7.41215 13.7413 7.26436 13.8217 7.10246C13.8217 7.10246 13.7839 7.0942 13.7047 7.0942H13.7048ZM18.7545 7.0942C18.4829 7.0942 18.2813 7.45946 18.2813 7.45946L18.3353 7.1242H17.7713L17.3925 9.43871H18.015C18.1916 8.45034 18.2246 7.64781 18.6457 7.79471C18.7196 7.41215 18.7911 7.26436 18.8715 7.10246C18.8715 7.10246 18.8337 7.0942 18.7545 7.0942H18.7545ZM11.5185 7.59146C11.8609 7.59146 11.7983 7.97795 11.7983 8.0092H11.124C11.124 7.96931 11.1878 7.59146 11.5185 7.59146H11.5185ZM19.6658 7.63646C19.8837 7.63638 19.9958 7.7836 19.9958 8.12994C19.9958 8.4442 19.8373 8.8642 19.509 8.8642C19.2911 8.8642 19.1887 8.68427 19.1887 8.4022C19.1887 7.94097 19.3998 7.63646 19.6657 7.63646H19.6658ZM16.671 8.42394C16.7599 8.42406 16.7783 8.4327 16.7933 8.43671C16.7911 8.43635 16.7907 8.43676 16.7993 8.4382C16.8105 8.54128 16.737 9.02471 16.3815 9.02471C16.1982 9.02471 16.1513 8.87896 16.1513 8.79294C16.1513 8.62523 16.2386 8.42394 16.671 8.42394ZM6.97726 8.4262C7.07822 8.42632 7.08924 8.4376 7.10626 8.44046C7.11754 8.54349 7.04371 9.0262 6.687 9.0262C6.50299 9.0262 6.45526 8.88114 6.45526 8.7952C6.45526 8.62758 6.5431 8.4262 6.97726 8.4262Z" fill="#36998D"/>
</svg>
