<svg width="31" height="31" viewBox="0 0 31 31" fill="none" xmlns="http://www.w3.org/2000/svg">
<rect opacity="0.05" width="31" height="31" rx="7" fill="#1D1D1D"/>
<path d="M16.0002 10.9035V13.956M16.0185 6.8335C12.6452 6.8335 9.91348 9.56516 9.91348 12.9385V14.8635C9.91348 15.4868 9.65682 16.4218 9.33598 16.9535L8.17182 18.8968C7.45682 20.0977 7.95182 21.436 9.27182 21.876C13.6547 23.3335 18.3915 23.3335 22.7743 21.876C23.0635 21.7795 23.3273 21.6193 23.5463 21.4072C23.7653 21.195 23.9338 20.9364 24.0394 20.6504C24.145 20.3644 24.185 20.0584 24.1564 19.7548C24.1278 19.4513 24.0314 19.1581 23.8743 18.8968L22.7101 16.9535C22.3893 16.4218 22.1327 15.4777 22.1327 14.8635V12.9385C22.1235 9.5835 19.3735 6.8335 16.0185 6.8335Z" stroke="#1D1D1D" stroke-width="1.5" stroke-miterlimit="10" stroke-linecap="round"/>
<path d="M19.0523 22.2515C19.0523 23.929 17.6773 25.304 15.9998 25.304C15.1656 25.304 14.3956 24.9556 13.8456 24.4056C13.2956 23.8556 12.9473 23.0856 12.9473 22.2515" stroke="#1D1D1D" stroke-width="1.5" stroke-miterlimit="10"/>
</svg>
