<svg width="22" height="22" viewBox="0 0 22 22" fill="none" xmlns="http://www.w3.org/2000/svg">
<path d="M4 7C2 7 1 8 1 10V18C1 20 2 21 4 21H12C10 21 9 20 9 18V7M4 7H9M4 7V5C4 3.9 4.9 3 6 3H9.11C9.03 3.3 9 3.63 9 4V7M13 7V12M17 7V12M5 12V16M16 16H14C13.45 16 13 16.45 13 17V21H17V17C17 16.45 16.55 16 16 16Z" stroke="#1D1D1D" stroke-width="1.5" stroke-miterlimit="10" stroke-linecap="round" stroke-linejoin="round"/>
<path d="M9 18V4C9 2 10 1 12 1H18C20 1 21 2 21 4V18C21 20 20 21 18 21H12C10 21 9 20 9 18Z" stroke="#1D1D1D" stroke-width="1.5" stroke-miterlimit="10" stroke-linecap="round" stroke-linejoin="round"/>
</svg>
