<svg width="22" height="22" viewBox="0 0 22 22" fill="none" xmlns="http://www.w3.org/2000/svg">
<path d="M5 9V7C5 3.69 6 1 11 1C16 1 17 3.69 17 7V9M8.5 15C8.5 15.663 8.76339 16.2989 9.23223 16.7678C9.70107 17.2366 10.337 17.5 11 17.5C11.663 17.5 12.2989 17.2366 12.7678 16.7678C13.2366 16.2989 13.5 15.663 13.5 15C13.5 14.337 13.2366 13.7011 12.7678 13.2322C12.2989 12.7634 11.663 12.5 11 12.5" stroke="#1D1D1D" stroke-opacity="0.3" stroke-width="1.5" stroke-linecap="round" stroke-linejoin="round"/>
<path d="M21 16V14C21 10 20 9 16 9H6C2 9 1 10 1 14V16C1 20 2 21 6 21H16C17.76 21 18.94 20.81 19.71 20.25" stroke="#1D1D1D" stroke-opacity="0.3" stroke-width="1.5" stroke-linecap="round" stroke-linejoin="round"/>
</svg>
