<svg width="30" height="27" viewBox="0 0 30 27" fill="none" xmlns="http://www.w3.org/2000/svg">
<path fill-rule="evenodd" clip-rule="evenodd" d="M11.9556 26.656H18.3412C22.8258 26.656 25.0688 26.656 26.6796 25.5998C27.3746 25.1443 27.9732 24.5565 28.4413 23.8698C29.5175 22.2892 29.5175 20.0864 29.5175 15.6837C29.5175 11.2796 29.5175 9.07824 28.4413 7.49764C27.9733 6.81095 27.3747 6.2231 26.6796 5.76759C25.6451 5.08794 24.349 4.8451 22.3646 4.75888C21.4177 4.75888 20.6029 4.0548 20.4176 3.14236C20.2759 2.47401 19.9078 1.87505 19.3756 1.44673C18.8433 1.01841 18.1795 0.786985 17.4963 0.791571H12.8005C11.3808 0.791571 10.158 1.77586 9.87926 3.14236C9.6939 4.0548 8.87917 4.75888 7.93224 4.75888C5.9493 4.8451 4.65321 5.08937 3.6172 5.76759C2.92262 6.22319 2.32451 6.81104 1.85698 7.49764C0.779297 9.07824 0.779297 11.2796 0.779297 15.6837C0.779297 20.0864 0.779297 22.2878 1.85554 23.8698C2.3211 24.5538 2.91886 25.1415 3.6172 25.5998C5.22797 26.656 7.47099 26.656 11.9556 26.656ZM15.1484 9.80532C11.8421 9.80532 9.1608 12.4363 9.1608 15.6823C9.1608 18.9297 11.8421 21.5607 15.1484 21.5607C18.4547 21.5607 21.136 18.9297 21.136 15.6837C21.136 12.4363 18.4547 9.80532 15.1484 9.80532ZM15.1484 12.1561C13.1655 12.1561 11.5561 13.7353 11.5561 15.6837C11.5561 17.6307 13.1655 19.2099 15.1484 19.2099C17.1313 19.2099 18.7407 17.6307 18.7407 15.6837C18.7407 13.7353 17.1313 12.1561 15.1484 12.1561ZM21.9335 10.9807C21.9335 10.3312 22.4695 9.80532 23.1319 9.80532H24.7269C25.3878 9.80532 25.9252 10.3312 25.9252 10.9807C25.9222 11.2952 25.7944 11.5957 25.57 11.8161C25.3456 12.0365 25.0428 12.1588 24.7283 12.1561H23.1319C22.976 12.1576 22.8214 12.1284 22.6768 12.0702C22.5322 12.0119 22.4005 11.9258 22.2893 11.8166C22.178 11.7075 22.0893 11.5775 22.0282 11.434C21.9672 11.2906 21.935 11.1366 21.9335 10.9807Z" fill="#1D1D1D" fill-opacity="0.3"/>
</svg>
