<svg width="68" height="68" viewBox="0 0 68 68" fill="none" xmlns="http://www.w3.org/2000/svg">
<circle opacity="0.3" cx="34.1446" cy="34.1444" r="33.8555" fill="#FF735F"/>
<circle opacity="0.6" cx="34.1446" cy="34.1443" r="27.4253" fill="#FF735F"/>
<path d="M34.019 49.0839C33.6292 49.0839 33.3027 48.9523 33.0394 48.689C32.7753 48.4249 32.6432 48.0979 32.6432 47.7081V46.3323C29.777 46.0113 27.318 44.8249 25.2662 42.7731C23.2135 40.7205 22.0267 38.261 21.7057 35.3948H20.3299C19.9401 35.3948 19.6131 35.2627 19.349 34.9986C19.0857 34.7353 18.9541 34.4088 18.9541 34.019C18.9541 33.6292 19.0857 33.3022 19.349 33.0381C19.6131 32.7748 19.9401 32.6432 20.3299 32.6432H21.7057C22.0267 29.777 23.2135 27.3175 25.2662 25.2648C27.318 23.2131 29.777 22.0267 32.6432 21.7057V20.3299C32.6432 19.9401 32.7753 19.6131 33.0394 19.349C33.3027 19.0857 33.6292 18.9541 34.019 18.9541C34.4088 18.9541 34.7358 19.0857 34.9999 19.349C35.2632 19.6131 35.3948 19.9401 35.3948 20.3299V21.7057C38.261 22.0267 40.7205 23.2131 42.7731 25.2648C44.8249 27.3175 46.0113 29.777 46.3323 32.6432H47.7081C48.0979 32.6432 48.4249 32.7748 48.689 33.0381C48.9523 33.3022 49.0839 33.6292 49.0839 34.019C49.0839 34.4088 48.9523 34.7353 48.689 34.9986C48.4249 35.2627 48.0979 35.3948 47.7081 35.3948H46.3323C46.0113 38.261 44.8249 40.7205 42.7731 42.7731C40.7205 44.8249 38.261 46.0113 35.3948 46.3323V47.7081C35.3948 48.0979 35.2632 48.4249 34.9999 48.689C34.7358 48.9523 34.4088 49.0839 34.019 49.0839ZM34.019 43.6495C36.6789 43.6495 38.9489 42.7094 40.8291 40.8291C42.7094 38.9489 43.6495 36.6789 43.6495 34.019C43.6495 31.3591 42.7094 29.0891 40.8291 27.2088C38.9489 25.3286 36.6789 24.3885 34.019 24.3885C31.3591 24.3885 29.0891 25.3286 27.2088 27.2088C25.3286 29.0891 24.3885 31.3591 24.3885 34.019C24.3885 36.6789 25.3286 38.9489 27.2088 40.8291C29.0891 42.7094 31.3591 43.6495 34.019 43.6495ZM34.019 39.5222C32.5056 39.5222 31.2101 38.9833 30.1324 37.9056C29.0547 36.8279 28.5158 35.5324 28.5158 34.019C28.5158 32.5056 29.0547 31.2101 30.1324 30.1324C31.2101 29.0547 32.5056 28.5158 34.019 28.5158C35.5324 28.5158 36.8279 29.0547 37.9056 30.1324C38.9833 31.2101 39.5222 32.5056 39.5222 34.019C39.5222 35.5324 38.9833 36.8279 37.9056 37.9056C36.8279 38.9833 35.5324 39.5222 34.019 39.5222ZM34.019 36.7706C34.7757 36.7706 35.4237 36.5009 35.963 35.9616C36.5014 35.4232 36.7706 34.7757 36.7706 34.019C36.7706 33.2623 36.5014 32.6143 35.963 32.075C35.4237 31.5366 34.7757 31.2674 34.019 31.2674C33.2623 31.2674 32.6148 31.5366 32.0764 32.075C31.5371 32.6143 31.2674 33.2623 31.2674 34.019C31.2674 34.7757 31.5371 35.4232 32.0764 35.9616C32.6148 36.5009 33.2623 36.7706 34.019 36.7706ZM34.019 36.7706C33.2623 36.7706 32.6148 36.5009 32.0764 35.9616C31.5371 35.4232 31.2674 34.7757 31.2674 34.019C31.2674 33.2623 31.5371 32.6143 32.0764 32.075C32.6148 31.5366 33.2623 31.2674 34.019 31.2674C34.7757 31.2674 35.4237 31.5366 35.963 32.075C36.5014 32.6143 36.7706 33.2623 36.7706 34.019C36.7706 34.7757 36.5014 35.4232 35.963 35.9616C35.4237 36.5009 34.7757 36.7706 34.019 36.7706Z" fill="white"/>
</svg>
