<svg width="27" height="25" viewBox="0 0 27 25" fill="none" xmlns="http://www.w3.org/2000/svg">
<path d="M25.4911 8.68976L17.8047 7.57267L14.3687 0.60675C14.2748 0.416027 14.1204 0.261632 13.9297 0.167785C13.4514 -0.0683482 12.8701 0.128429 12.631 0.60675L9.19495 7.57267L1.50853 8.68976C1.29661 8.72003 1.10286 8.81993 0.954523 8.9713C0.775188 9.15562 0.676367 9.40361 0.679773 9.66075C0.683179 9.9179 0.788533 10.1632 0.972687 10.3427L6.53392 15.7647L5.22005 23.4208C5.18924 23.5989 5.20895 23.7821 5.27694 23.9495C5.34493 24.117 5.45849 24.2621 5.60473 24.3683C5.75097 24.4745 5.92405 24.5376 6.10434 24.5505C6.28462 24.5633 6.4649 24.5254 6.62474 24.441L13.4998 20.8264L20.3749 24.441C20.5626 24.5409 20.7806 24.5742 20.9895 24.5379C21.5162 24.4471 21.8704 23.9476 21.7796 23.4208L20.4658 15.7647L26.027 10.3427C26.1784 10.1943 26.2783 10.0006 26.3085 9.78868C26.3903 9.2589 26.0209 8.76847 25.4911 8.68976Z" fill="#FF735F"/>
</svg>
