<svg width="31" height="31" viewBox="0 0 31 31" fill="none" xmlns="http://www.w3.org/2000/svg">
<rect opacity="0.05" width="31" height="31" rx="7" fill="#1D1D1D"/>
<path d="M14.616 7.04418L10.0418 8.75835C8.98764 9.15251 8.12598 10.3992 8.12598 11.5267V18.3375C8.12598 19.4192 8.84098 20.84 9.71181 21.4908L13.6535 24.4333C14.946 25.405 17.0726 25.405 18.3651 24.4333L22.3068 21.4908C23.1776 20.84 23.8926 19.4192 23.8926 18.3375V11.5267C23.8926 10.3992 23.031 9.15251 21.9768 8.75835L17.4026 7.04418C16.6235 6.76001 15.3768 6.76001 14.616 7.04418Z" stroke="#1D1D1D" stroke-width="1.5" stroke-linecap="round" stroke-linejoin="round"/>
<path d="M15.9998 15.0099H15.8806C15.019 14.9824 14.3315 14.2674 14.3315 13.3965C14.3315 12.5074 15.0556 11.7832 15.9448 11.7832C16.834 11.7832 17.5581 12.5074 17.5581 13.3965C17.549 14.2765 16.8615 14.9824 15.9998 15.0099ZM14.1756 17.5765C13.2956 18.1632 13.2956 19.1257 14.1756 19.7124C15.1748 20.3815 16.8156 20.3815 17.8148 19.7124C18.6948 19.1257 18.6948 18.1632 17.8148 17.5765C16.8248 16.9074 15.184 16.9074 14.1756 17.5765Z" stroke="#1D1D1D" stroke-width="1.5" stroke-linecap="round" stroke-linejoin="round"/>
</svg>
