<svg width="25" height="25" viewBox="0 0 25 25" fill="none" xmlns="http://www.w3.org/2000/svg">
<path d="M8.14258 12.7723H15.1426M8.14258 16.7723H12.5226M10.1426 6.57227H14.1426C16.1426 6.57227 16.1426 5.57227 16.1426 4.57227C16.1426 2.57227 15.1426 2.57227 14.1426 2.57227H10.1426C9.14258 2.57227 8.14258 2.57227 8.14258 4.57227C8.14258 6.57227 9.14258 6.57227 10.1426 6.57227Z" stroke="#1D1D1D" stroke-width="1.5" stroke-miterlimit="10" stroke-linecap="round" stroke-linejoin="round"/>
<path d="M16.1426 4.5918C19.4726 4.7718 21.1426 6.0018 21.1426 10.5718V16.5718C21.1426 20.5718 20.1426 22.5718 15.1426 22.5718H9.14258C4.14258 22.5718 3.14258 20.5718 3.14258 16.5718V10.5718C3.14258 6.0118 4.81258 4.7718 8.14258 4.5918" stroke="#1D1D1D" stroke-width="1.5" stroke-miterlimit="10" stroke-linecap="round" stroke-linejoin="round"/>
</svg>
