<svg width="24" height="20" viewBox="0 0 24 20" fill="none" xmlns="http://www.w3.org/2000/svg">
<path d="M19.5885 8.97077C19.5885 8.97077 19.905 10.521 19.9763 10.8458H18.585L19.2518 9.03302C19.2435 9.04577 19.389 8.65352 19.4723 8.41202L19.5885 8.97077ZM24.0008 2.66627V17.3333C24.0006 17.8637 23.7897 18.3724 23.4147 18.7474C23.0396 19.1225 22.5309 19.3333 22.0005 19.3335H2.00025C1.46981 19.3333 0.961156 19.1225 0.586079 18.7474C0.211003 18.3724 0.000198778 17.8637 0 17.3333V2.66627C0.000198778 2.13583 0.211003 1.62717 0.586079 1.25209C0.961156 0.877018 1.46981 0.666214 2.00025 0.666016H22.0005C22.5309 0.666214 23.0396 0.877018 23.4147 1.25209C23.7897 1.62717 24.0006 2.13583 24.0008 2.66627ZM6.35475 13.1333L8.988 6.66677H7.21725L5.58 11.0835L5.40075 10.188L4.81725 7.21277C4.72125 6.80027 4.42575 6.68327 4.059 6.66677H1.3635L1.33425 6.79576C1.95156 6.94721 2.54369 7.18719 3.09225 7.50827L4.584 13.1333H6.35475ZM10.2885 13.1415L11.3385 6.66677H9.66375L8.61825 13.1415H10.2885ZM16.1175 11.025C16.1258 10.2878 15.6758 9.72527 14.7135 9.26252C14.1263 8.96627 13.7678 8.76677 13.7678 8.46227C13.776 8.18702 14.0723 7.90352 14.73 7.90352C15.1584 7.89143 15.5841 7.97549 15.9757 8.14952L16.1258 8.22002L16.3553 6.81977C15.8765 6.63647 15.3679 6.54316 14.8553 6.54452C13.2008 6.54452 12.0382 7.42802 12.03 8.68577C12.0173 9.61502 12.8633 10.1318 13.497 10.4438C14.1428 10.7603 14.364 10.9688 14.364 11.2478C14.3558 11.6813 13.839 11.8808 13.3598 11.8808C12.693 11.8808 12.3345 11.7765 11.7885 11.535L11.568 11.4308L11.3348 12.885C11.7263 13.0643 12.4515 13.2225 13.2015 13.2308C14.9595 13.2345 16.1055 12.3638 16.1182 11.0228L16.1175 11.025ZM22.0005 13.1415L20.6505 6.66677H19.3545C18.9548 6.66677 18.6503 6.78377 18.4793 7.20452L15.9915 13.1423H17.7495C17.7495 13.1423 18.0368 12.342 18.0998 12.1718H20.25C20.3003 12.4013 20.4503 13.1423 20.4503 13.1423L22.0005 13.1415Z" fill="#36998D"/>
</svg>
